<svg width="18" height="18" viewBox="0 0 18 18" fill="none" xmlns="http://www.w3.org/2000/svg">
<path d="M16.8333 15.5267L13.66 12.4667C14.68 11.1067 15.36 9.52 15.36 7.70667C15.36 3.51333 11.96 0 7.65333 0C3.34666 0 0.0599976 3.4 0.0599976 7.70667C0.0599976 12.0133 3.46 15.4133 7.76666 15.4133C9.58 15.4133 11.28 14.7333 12.5267 13.7133L15.7 16.8867C15.8133 17 16.04 17.1133 16.2667 17.1133C16.4933 17.1133 16.72 17 16.8333 16.8867C17.1733 16.4333 17.1733 15.8667 16.8333 15.5267ZM1.76 7.70667C1.76 4.42 4.48 1.81333 7.65333 1.81333C10.8267 1.81333 13.66 4.42 13.66 7.70667C13.66 10.9933 10.94 13.6 7.76666 13.6C4.59333 13.6 1.76 10.88 1.76 7.70667Z" fill="#131117" fill-opacity="0.7"/>
</svg>
